<?xml version="1.0" encoding="iso-8859-1"?>
<!-- Generator: Adobe Illustrator 15.0.0, SVG Export Plug-In . SVG Version: 6.00 Build 0)  -->
<!DOCTYPE svg PUBLIC "-//W3C//DTD SVG 1.1//EN" "http://www.w3.org/Graphics/SVG/1.1/DTD/svg11.dtd">
<svg version="1.1" xmlns="http://www.w3.org/2000/svg" xmlns:xlink="http://www.w3.org/1999/xlink" x="0px" y="0px" width="235px"
	 height="235px" viewBox="0 0 235 235" style="enable-background:new 0 0 235 235;" xml:space="preserve">
<g id="Village">
	<rect style="fill:#B1B1B1;" width="235" height="235"/>
	<path style="fill:#E3E3E3;" d="M117.5,18.502c-54.676,0-98.999,44.323-98.999,98.999c0,54.675,44.323,98.999,98.999,98.999
		c54.675,0,98.999-44.324,98.999-98.999C216.499,62.825,172.175,18.502,117.5,18.502z M117.5,202.979
		c-47.209,0-85.479-38.27-85.479-85.478c0-47.209,38.271-85.479,85.479-85.479c47.208,0,85.479,38.271,85.479,85.479
		C202.979,164.709,164.708,202.979,117.5,202.979z"/>
	<path style="fill:#EDA33F;" d="M197.227,117.501c0,44.03-35.694,79.724-79.726,79.724c-44.033,0-79.728-35.693-79.728-79.724
		c0-44.033,35.694-79.729,79.728-79.729C161.532,37.772,197.227,73.468,197.227,117.501z"/>
	<ellipse style="fill:#54B948;" cx="117.5" cy="138.531" rx="68.561" ry="14.361"/>
	<path style="fill:#295F2F;" d="M158.236,127.467c-5.938-1.658-12.428-25.685-37.561-25.685c-25.132,0-39.217,23.199-46.121,25.685
		C84.773,130.504,134.761,134.095,158.236,127.467z"/>
	<g>
		<rect x="75.037" y="109.256" style="fill:#5D140B;" width="7.456" height="14.914"/>
		<polygon style="fill:#D3D5D6;" points="111.124,146.264 69.513,146.264 69.513,121.355 90.319,114.227 111.124,121.355 		"/>
		<polygon style="fill:#352200;" points="90.319,111.65 66.938,118.462 66.938,125.274 90.319,118.462 113.701,125.274 
			113.701,118.462 		"/>
	</g>
	<g>
		<rect x="107.911" y="82.197" style="fill:#5D140B;" width="5.676" height="11.352"/>
		<polygon style="fill:#D3D5D6;" points="135.381,110.367 103.707,110.367 103.707,91.407 119.544,85.981 135.381,91.407 		"/>
		<polygon style="fill:#352200;" points="119.544,84.02 101.746,89.205 101.746,94.39 119.544,89.205 137.343,94.39 137.343,89.205 
					"/>
	</g>
	<g>
		<rect x="132.481" y="103.732" style="fill:#5D140B;" width="7.456" height="14.914"/>
		<polygon style="fill:#D3D5D6;" points="168.569,140.74 126.958,140.74 126.958,115.832 147.765,108.704 168.569,115.832 		"/>
		<polygon style="fill:#352200;" points="147.765,106.126 124.382,112.938 124.382,119.75 147.765,112.938 171.146,119.75 
			171.146,112.938 		"/>
	</g>
</g>
<g id="Layer_1">
</g>
</svg>
